<?xml version="1.0" encoding="UTF-8"?>
<svg id="Laag_1" xmlns="http://www.w3.org/2000/svg" version="1.1" viewBox="0 0 595.28 245.52">
  <!-- Generator: Adobe Illustrator 29.3.1, SVG Export Plug-In . SVG Version: 2.1.0 Build 151)  -->
  <defs>
    <style>
      .st0 {
        fill: #009fc0;
      }

      .st1 {
        fill: #004288;
      }

      .st2 {
        fill: #007bc3;
      }

      .st3 {
        fill: #7f5ca2;
      }

      .st4 {
        fill: #134382;
      }

      .st5 {
        fill: #629986;
      }

      .st6 {
        fill: #5f88a3;
      }
    </style>
  </defs>
  <path class="st1" d="M238.76,127.86c.99-.17,2.11-.29,3.35-.37,1.24-.08,2.51-.17,3.81-.25,1.29-.08,2.55-.14,3.77-.17,1.21-.03,2.29-.04,3.23-.04,4.58,0,8.4.7,11.46,2.11,3.06,1.41,5.52,3.4,7.37,5.96,1.85,2.57,3.16,5.64,3.93,9.23.78,3.59,1.16,7.59,1.16,12,0,4.03-.37,7.88-1.12,11.55-.75,3.67-2.05,6.9-3.93,9.69-1.88,2.79-4.42,5.01-7.62,6.66-3.2,1.66-7.23,2.48-12.08,2.48-.72,0-1.68-.03-2.9-.08-1.22-.05-2.49-.12-3.81-.21-1.33-.08-2.6-.17-3.81-.25-1.21-.08-2.15-.18-2.81-.29v-58.02ZM253.99,136.64c-.88,0-1.78.01-2.69.04-.91.03-1.61.1-2.11.21v39.9c.16.05.45.1.87.12.41.03.86.06,1.33.08.47.03.91.05,1.32.08s.7.04.87.04c2.48,0,4.53-.58,6.12-1.74,1.6-1.16,2.86-2.7,3.77-4.64.91-1.93,1.55-4.15,1.91-6.66.36-2.51.54-5.14.54-7.91,0-2.54-.15-5-.46-7.37-.3-2.37-.88-4.46-1.74-6.25-.86-1.79-2.07-3.23-3.64-4.31-1.57-1.07-3.6-1.61-6.09-1.61Z"/>
  <path class="st1" d="M309.45,172.56h-13.66l-3.4,13.24h-10.35l16.8-58.36h8.19l16.88,58.36h-10.93l-3.56-13.24ZM298.03,164.12h9.6l-3.31-13.49-1.33-9.11h-.33l-1.41,9.19-3.22,13.41Z"/>
  <path class="st1" d="M361.76,137.46h-13.66v48.34h-10.43v-48.34h-13.74v-9.6h37.83v9.6Z"/>
  <path class="st1" d="M389.08,172.56h-13.66l-3.4,13.24h-10.35l16.8-58.36h8.19l16.88,58.36h-10.93l-3.56-13.24ZM377.65,164.12h9.6l-3.31-13.49-1.33-9.11h-.33l-1.41,9.19-3.22,13.41Z"/>
  <path class="st1" d="M430.96,127.86c.99-.17,2.11-.29,3.35-.37,1.25-.08,2.51-.17,3.81-.25,1.3-.08,2.55-.14,3.77-.17,1.21-.03,2.29-.04,3.23-.04,4.58,0,8.4.7,11.46,2.11,3.06,1.41,5.52,3.4,7.37,5.96,1.85,2.57,3.16,5.64,3.93,9.23.78,3.59,1.16,7.59,1.16,12,0,4.03-.37,7.88-1.12,11.55-.75,3.67-2.05,6.9-3.93,9.69s-4.41,5.01-7.61,6.66c-3.2,1.66-7.23,2.48-12.09,2.48-.72,0-1.68-.03-2.9-.08-1.22-.05-2.48-.12-3.81-.21-1.33-.08-2.6-.17-3.81-.25-1.21-.08-2.15-.18-2.81-.29v-58.02ZM446.19,136.64c-.88,0-1.78.01-2.69.04-.91.03-1.62.1-2.11.21v39.9c.17.05.46.1.87.12.41.03.85.06,1.32.08.47.03.91.05,1.33.08.41.03.7.04.87.04,2.49,0,4.53-.58,6.13-1.74,1.6-1.16,2.85-2.7,3.77-4.64.91-1.93,1.54-4.15,1.9-6.66.36-2.51.54-5.14.54-7.91,0-2.54-.15-5-.46-7.37-.3-2.37-.88-4.46-1.74-6.25-.86-1.79-2.07-3.23-3.64-4.31-1.57-1.07-3.6-1.61-6.09-1.61Z"/>
  <path class="st1" d="M501.65,172.56h-13.66l-3.4,13.24h-10.35l16.8-58.36h8.19l16.88,58.36h-10.93l-3.56-13.24ZM490.23,164.12h9.6l-3.31-13.49-1.33-9.11h-.33l-1.41,9.19-3.22,13.41Z"/>
  <path class="st1" d="M529.88,164.29l-15.56-36.42h12.42l8.03,21.93.83,6.29h.41l.91-6.46,7.86-21.77h11.17l-15.65,36.34v21.6h-10.43v-21.52Z"/>
  <path class="st1" d="M238.76,58.62c1.77-.43,3.71-.73,5.82-.92,2.11-.19,4.05-.28,5.82-.28,2.09,0,4.07.25,5.94.76,1.87.51,3.5,1.36,4.9,2.57,1.39,1.2,2.5,2.78,3.33,4.74.83,1.95,1.24,4.4,1.24,7.34,0,4.44-.92,8-2.77,10.67-1.85,2.68-4.29,4.47-7.35,5.38l3.05,2.97,11.08,22.39h-6.98l-12.04-24.48-6.02-1.2v25.69h-6.02v-55.62ZM244.78,84.55h4.82c3.05,0,5.46-.94,7.22-2.81,1.77-1.87,2.65-4.74,2.65-8.59,0-2.94-.74-5.38-2.21-7.3-1.47-1.93-3.65-2.89-6.54-2.89-1.07,0-2.18.04-3.33.12-1.15.08-2.02.2-2.61.36v21.11Z"/>
  <path class="st1" d="M281.3,58.06h24.96v5.54h-18.94v19.02h17.42v5.54h-17.42v20.55h19.34v5.54h-25.36v-56.19Z"/>
  <path class="st1" d="M319.34,106.78c1.02.7,2.45,1.35,4.29,1.97,1.85.62,3.95.92,6.3.92,3,0,5.43-.74,7.3-2.21,1.87-1.47,2.81-3.78,2.81-6.94,0-2.09-.54-3.91-1.61-5.46-1.07-1.55-2.41-2.98-4.01-4.29-1.6-1.31-3.33-2.6-5.18-3.85-1.85-1.26-3.57-2.65-5.18-4.17-1.6-1.53-2.94-3.28-4.01-5.26-1.07-1.98-1.6-4.36-1.6-7.14,0-4.5,1.35-7.83,4.05-9.99,2.7-2.17,6.22-3.25,10.55-3.25,2.68,0,5.06.24,7.14.72,2.09.48,3.77,1.1,5.06,1.85l-1.93,5.3c-.96-.59-2.34-1.12-4.13-1.61-1.79-.48-3.87-.72-6.22-.72-2.89,0-5.03.71-6.42,2.13-1.39,1.42-2.09,3.2-2.09,5.34,0,1.87.53,3.53,1.6,4.98,1.07,1.44,2.41,2.81,4.01,4.09,1.61,1.28,3.33,2.58,5.18,3.89,1.85,1.31,3.57,2.77,5.18,4.37,1.61,1.61,2.94,3.43,4.01,5.46,1.07,2.03,1.61,4.44,1.61,7.22,0,4.71-1.39,8.4-4.17,11.08-2.78,2.68-6.72,4.01-11.8,4.01-3.21,0-5.85-.29-7.91-.88-2.06-.59-3.71-1.26-4.94-2.01l2.09-5.54Z"/>
  <path class="st1" d="M358.11,58.06h24.96v5.54h-18.94v19.02h17.42v5.54h-17.42v20.55h19.34v5.54h-25.36v-56.19Z"/>
  <path class="st1" d="M418.08,98.51h-15.84l-4.48,15.73h-5.94l16.94-57.07h3.29l16.94,57.07h-6.34l-4.56-15.73ZM403.84,93.29h12.8l-4.88-17.45-1.48-8.48h-.17l-1.56,8.64-4.72,17.28Z"/>
  <path class="st1" d="M438.54,58.62c1.77-.43,3.71-.73,5.82-.92,2.11-.19,4.05-.28,5.82-.28,2.09,0,4.07.25,5.94.76,1.87.51,3.5,1.36,4.9,2.57,1.39,1.2,2.5,2.78,3.33,4.74.83,1.95,1.24,4.4,1.24,7.34,0,4.44-.92,8-2.77,10.67-1.85,2.68-4.29,4.47-7.35,5.38l3.05,2.97,11.08,22.39h-6.98l-12.04-24.48-6.02-1.2v25.69h-6.02v-55.62ZM444.55,84.55h4.82c3.05,0,5.46-.94,7.22-2.81,1.77-1.87,2.65-4.74,2.65-8.59,0-2.94-.74-5.38-2.21-7.3-1.47-1.93-3.65-2.89-6.54-2.89-1.07,0-2.18.04-3.33.12-1.15.08-2.02.2-2.61.36v21.11Z"/>
  <path class="st1" d="M508.21,112.08c-1.34,1.12-3.02,1.93-5.06,2.41-2.04.48-4.17.72-6.42.72-2.84,0-5.46-.54-7.87-1.61-2.41-1.07-4.48-2.77-6.22-5.1-1.74-2.33-3.09-5.34-4.05-9.03-.96-3.69-1.44-8.13-1.44-13.32s.55-9.87,1.65-13.57c1.1-3.69,2.56-6.69,4.37-8.99,1.82-2.3,3.92-3.96,6.3-4.98,2.38-1.02,4.83-1.52,7.35-1.52s4.69.19,6.38.56c1.69.38,3.14.83,4.37,1.36l-1.44,5.46c-1.07-.59-2.33-1.04-3.77-1.36-1.44-.32-3.1-.48-4.98-.48s-3.64.42-5.3,1.24c-1.66.83-3.13,2.17-4.41,4.01-1.28,1.85-2.3,4.27-3.05,7.26-.75,3-1.12,6.66-1.12,11,0,7.81,1.34,13.69,4.01,17.62,2.68,3.93,6.23,5.9,10.68,5.9,1.82,0,3.45-.25,4.9-.76,1.44-.51,2.68-1.11,3.69-1.81l1.44,4.98Z"/>
  <path class="st1" d="M546.33,88.32h-20.71v25.93h-6.02v-56.19h6.02v24.72h20.71v-24.72h6.02v56.19h-6.02v-25.93Z"/>
  <path class="st4" d="M100.34,152.63v-64.48h25.14c17.78,0,32.24,14.46,32.24,32.24s-14.46,32.24-32.24,32.24h-25.14Z"/>
  <path class="st2" d="M45.39,113.74v14.28c11.07.79,19.85,10.02,19.85,21.29s-8.78,20.51-19.85,21.29v16.45h42.67v-73.32h-42.67Z"/>
  <path class="st5" d="M167.13,159.5c0-8.84,7.19-16.04,16.04-16.04.27,0,.54.03.81.04,2.12-5.35,3.56-11.04,4.13-16.98h-18.54c-2,14.41-10.91,26.63-23.27,33.2l10.16,15.41c4.41-2.5,8.48-5.52,12.14-8.98-.93-2.03-1.47-4.28-1.47-6.66Z"/>
  <path class="st6" d="M199.59,81.18c-3.99,3.19-9.04,5.11-14.53,5.11-12.85,0-23.31-10.46-23.31-23.31,0-5.62,2-10.78,5.32-14.81-11.51-6.61-24.67-10.66-38.71-11.29v39.1c21.16,1.36,38.33,17.56,41.21,38.28h40.3c-1.16-11.9-4.76-23.09-10.28-33.07Z"/>
  <path class="st0" d="M85.99,57.46c-.11,9.18-7.29,16.68-16.34,17.31v26.7h18.41v-25.59h28.02v-18.41h-30.09Z"/>
  <circle class="st2" cx="43.87" cy="149.31" r="14.01"/>
  <circle class="st5" cx="183.17" cy="159.5" r="8.67"/>
  <circle class="st6" cx="185.06" cy="62.98" r="15.95"/>
  <circle class="st0" cx="68.42" cy="57.24" r="10.21"/>
  <circle class="st3" cx="101.12" cy="204.59" r="10.21"/>
  <path class="st3" d="M145.06,180.18s.01,0,.02,0l-10.07-15.27h-34.67v18.41h0v3.73c.26-.01.52-.04.78-.04,9.42,0,17.11,7.45,17.54,16.77h43.07l-16.67-23.6Z"/>
</svg>